<?xml version="1.0" encoding="UTF-8"?>
<svg version="1.1" xmlns="http://www.w3.org/2000/svg" width="1024" height="1024">
<path d="M0 0 C337.92 0 675.84 0 1024 0 C1024 337.92 1024 675.84 1024 1024 C686.08 1024 348.16 1024 0 1024 C0 686.08 0 348.16 0 0 Z " fill="#000000" transform="translate(0,0)"/>
<path d="M0 0 C37.62 0 75.24 0 114 0 C116.45332513 5.51998155 118.67998396 10.66240739 120.625 16.3125 C121.13734786 17.78669239 121.65042605 19.26063108 122.1640625 20.734375 C122.44926758 21.55486328 122.73447266 22.37535156 123.02832031 23.22070312 C124.99409663 28.84341608 126.99819481 34.45253488 129 40.0625 C129.65125854 41.8887793 129.65125854 41.8887793 130.31567383 43.75195312 C132.59479171 50.12640814 134.90512148 56.48538447 137.3125 62.8125 C139.60969139 68.85875937 141.67256252 74.94653395 143.62890625 81.109375 C144.7154509 84.35189455 146.02575273 87.4743792 147.36328125 90.62109375 C150.0906474 97.08741994 152.38218385 103.66525697 154.625 110.3125 C157.35452834 118.59603962 157.35452834 118.59603962 160.5625 126.69921875 C162.38990489 130.89529791 163.8801963 135.17635631 165.375 139.5 C165.83289917 140.8135144 165.83289917 140.8135144 166.30004883 142.15356445 C168.15065911 147.48104946 169.93723112 152.82639103 171.6875 158.1875 C173.25980314 162.96130197 175.02078545 167.51069406 177.15234375 172.05859375 C178.42373342 174.97048622 179.21484241 177.92479943 180 181 C182.92260182 174.66464667 185.46153859 168.25460937 187.8125 161.6875 C188.15724365 160.73182129 188.5019873 159.77614258 188.85717773 158.79150391 C192.60706718 148.36816985 196.25568691 137.90954555 199.88671875 127.44433594 C203.08657848 118.22552608 206.33380635 109.03826786 209.80761719 99.91894531 C211.60724476 95.15242843 213.2334887 90.34355663 214.8125 85.5 C217.87526474 76.1233235 221.35244019 66.91247629 224.8515625 57.69140625 C227.8950707 49.65855162 230.84539967 41.6075706 233.5 33.4375 C235.44756239 27.51890479 237.64910388 21.77038138 240 16 C241.98 10.72 243.96 5.44 246 0 C300.78 0 355.56 0 412 0 C417.02086425 10.04172851 421.95061754 20.05343042 426.625 30.25 C430.19808165 38.03483007 433.8302445 45.76633539 437.72851562 53.39453125 C438.9090173 55.81356234 439.92410627 58.23335735 440.875 60.75 C442.50577921 64.96616089 444.44803263 68.97679506 446.5 73 C452.34980002 84.50068442 457.64211026 96.2645102 463 108 C463.67796631 109.4840332 463.67796631 109.4840332 464.36962891 110.99804688 C468.05414785 119.06955379 471.73276795 127.14353196 475.33984375 135.25 C479.12644692 143.74796345 483.02249928 152.13707682 487.2644043 160.41772461 C489.25362189 164.35177764 490.93213451 168.28618493 492.4375 172.4375 C494.71298324 178.66390792 497.70410168 184.37427144 500.87866211 190.17749023 C501.2525708 190.86141846 501.62647949 191.54534668 502.01171875 192.25 C502.34647217 192.85328125 502.68122559 193.4565625 503.02612305 194.078125 C504.16122646 196.31816864 505.06735413 198.66838533 506 201 C506 134.67 506 68.34 506 0 C537.02 0 568.04 0 600 0 C600 135.96 600 271.92 600 412 C589.93811355 410.88201262 589.93811355 410.88201262 585.64453125 409.140625 C580.0697346 406.99312395 574.44700635 405.32565623 568.6875 403.75 C567.61411377 403.45407959 566.54072754 403.15815918 565.43481445 402.85327148 C563.13691017 402.22180521 560.83830674 401.59287837 558.5390625 400.96630859 C555.01305408 400.0035643 551.4909699 399.02728165 547.96875 398.05078125 C545.54201762 397.38673694 543.11492785 396.72399749 540.6875 396.0625 C538.85276123 395.55565674 538.85276123 395.55565674 536.98095703 395.03857422 C529.80192032 393.10720487 522.65398193 391.51846078 515.3359375 390.20703125 C512.88049062 389.74429375 510.42576244 389.27788261 507.97109985 388.81100464 C506.38404531 388.5237161 504.7927976 388.25857651 503.1980896 388.0173645 C490.95278717 386.16389095 490.95278717 386.16389095 487.64920044 382.50317383 C485.07339684 378.60580825 483.53941337 374.40100245 482 370 C481.29907132 368.56915149 480.57860947 367.14703427 479.8125 365.75 C478.44874754 363.02822513 477.29239659 360.27402024 476.1875 357.4375 C474.53474 353.2123509 472.68672483 349.10092094 470.75 345 C468.19690103 339.59327676 465.72227356 334.15959105 463.3125 328.6875 C459.3852724 319.78308431 455.30687926 310.95027618 451.2121582 302.12182617 C448.71093409 296.72557875 446.23383067 291.32443799 443.86816406 285.8671875 C442.73841716 283.43740563 441.35795801 281.16838224 439.99609375 278.86328125 C438.43287175 275.93913658 437.29905679 272.86330657 436.10717773 269.77319336 C435.07691701 267.19265719 433.97262952 264.6728118 432.8125 262.1484375 C431.04210821 258.2803437 429.27896922 254.40928005 427.52992249 250.53147888 C413.95345052 220.39510717 413.95345052 220.39510717 399.29541016 190.77514648 C397.34560376 186.59809234 395.71200734 182.28001836 394 178 C394 242.02 394 306.04 394 372 C373.87 372 353.74 372 333 372 C314.93163129 372.69645109 314.93163129 372.69645109 296.87109375 373.5625 C286.92276096 374.00342334 276.95809915 374 267 374 C266.505 302.225 266.505 302.225 266 229 C258.40707737 247.1303776 258.40707737 247.1303776 251.36328125 265.3984375 C249.53420052 270.2305648 247.5002423 274.96080856 245.43359375 279.6953125 C244.07723618 282.82195693 242.78336063 285.96785085 241.5 289.125 C239.82061145 293.20970636 237.93448384 297.09408238 235.875 301 C233.31835432 305.9893723 231.91921974 310.75581295 230.69921875 316.20703125 C229.86860375 319.52485093 228.63524262 322.42938142 227.17578125 325.51171875 C225.66691651 328.70489761 224.26892155 331.94307864 222.875 335.1875 C222.37742187 336.33605469 221.87984375 337.48460937 221.3671875 338.66796875 C220.53853501 340.68751324 219.75801747 342.72899778 219.0703125 344.80078125 C218.71710938 345.85652344 218.36390625 346.91226562 218 348 C217.80156494 348.82846436 217.60312988 349.65692871 217.39868164 350.51049805 C216.55603802 353.38752043 215.73876321 355.5504493 214 358 C210.2237347 359.80681075 206.45000842 360.12466735 202.3125 360.5 C201.18851807 360.63905762 200.06453613 360.77811523 198.90649414 360.92138672 C195.60744471 361.32194345 192.30615374 361.6641138 189 362 C187.37692721 362.19496555 185.75442448 362.39479833 184.1328125 362.6015625 C181.40694682 362.94565783 178.68063214 363.26950616 175.94921875 363.56640625 C171.71156124 364.03166835 167.48065899 364.53809021 163.25 365.0625 C161.97640625 365.21847656 160.7028125 365.37445312 159.390625 365.53515625 C156.55785109 365.92352041 153.79825249 366.42404726 151 367 C149.58123711 363.70923306 148.16538824 360.41721966 146.75 357.125 C146.35425781 356.2071875 145.95851563 355.289375 145.55078125 354.34375 C142.93938971 348.26477298 140.43068638 342.15328846 138 336 C137.49129406 334.72119153 136.98221333 333.44253206 136.47265625 332.1640625 C135.74857587 330.34684138 135.02458658 328.52958335 134.30224609 326.71166992 C132.26036249 321.59409461 130.10124956 316.53208626 127.8828125 311.48828125 C127 309 127 309 127 305 C126.34 305 125.68 305 125 305 C124.6596875 303.99324219 124.319375 302.98648437 123.96875 301.94921875 C120.6614757 292.3047427 116.95731227 282.90060929 112.9296875 273.53515625 C111.23419512 269.584732 109.62735395 265.60359112 108.04003906 261.60864258 C106.20182746 256.99801089 104.31747168 252.40622506 102.4375 247.8125 C101.85838867 246.39420898 101.85838867 246.39420898 101.26757812 244.94726562 C100.70006836 243.55991211 100.70006836 243.55991211 100.12109375 242.14453125 C99.7852124 241.32315674 99.44933105 240.50178223 99.10327148 239.65551758 C97.7615529 236.42607012 96.37756567 233.2143199 95 230 C94.67 279.83 94.34 329.66 94 381 C88.39 382.65 82.78 384.3 77 386 C72.32246892 387.51717334 67.65718771 389.0490555 63 390.625 C61.86433594 391.0065625 60.72867188 391.388125 59.55859375 391.78125 C57.36398359 392.51872039 55.16978804 393.25742617 52.97607422 393.99755859 C50.34275551 394.88454847 47.70728664 395.7645777 45.0703125 396.640625 C37.00586449 399.32694067 29.02265565 402.18104258 21.125 405.32421875 C19.58030029 405.93789307 19.58030029 405.93789307 18.00439453 406.56396484 C15.94036067 407.38745284 13.87876296 408.21707701 11.81982422 409.05322266 C10.8660791 409.43397949 9.91233398 409.81473633 8.9296875 410.20703125 C8.07616699 410.5522583 7.22264648 410.89748535 6.34326172 411.25317383 C4 412 4 412 0 412 C0 276.04 0 140.08 0 0 Z " fill="#E0050D" transform="translate(215,286)"/>
<path d="M0 0 C37.62 0 75.24 0 114 0 C116.45332513 5.51998155 118.67998396 10.66240739 120.625 16.3125 C121.13734786 17.78669239 121.65042605 19.26063108 122.1640625 20.734375 C122.44926758 21.55486328 122.73447266 22.37535156 123.02832031 23.22070312 C124.99409663 28.84341608 126.99819481 34.45253488 129 40.0625 C129.65125854 41.8887793 129.65125854 41.8887793 130.31567383 43.75195312 C132.59479171 50.12640814 134.90512148 56.48538447 137.3125 62.8125 C139.60969139 68.85875937 141.67256252 74.94653395 143.62890625 81.109375 C144.7154509 84.35189455 146.02575273 87.4743792 147.36328125 90.62109375 C150.0906474 97.08741994 152.38218385 103.66525697 154.625 110.3125 C157.35452834 118.59603962 157.35452834 118.59603962 160.5625 126.69921875 C162.38990489 130.89529791 163.8801963 135.17635631 165.375 139.5 C165.83289917 140.8135144 165.83289917 140.8135144 166.30004883 142.15356445 C168.15065911 147.48104946 169.93723112 152.82639103 171.6875 158.1875 C173.25980314 162.96130197 175.02078545 167.51069406 177.15234375 172.05859375 C178.42373342 174.97048622 179.21484241 177.92479943 180 181 C182.92260182 174.66464667 185.46153859 168.25460937 187.8125 161.6875 C188.15724365 160.73182129 188.5019873 159.77614258 188.85717773 158.79150391 C192.60706718 148.36816985 196.25568691 137.90954555 199.88671875 127.44433594 C203.08657848 118.22552608 206.33380635 109.03826786 209.80761719 99.91894531 C211.60724476 95.15242843 213.2334887 90.34355663 214.8125 85.5 C217.87526474 76.1233235 221.35244019 66.91247629 224.8515625 57.69140625 C227.8950707 49.65855162 230.84539967 41.6075706 233.5 33.4375 C235.11761767 28.52159884 236.84889103 23.68686763 238.83203125 18.90600586 C240.32642449 15.18782802 241.72820934 11.43788117 243.12890625 7.68359375 C243.40577271 6.94330933 243.68263916 6.2030249 243.96789551 5.44030762 C244.64592175 3.62711769 245.3230516 1.81359261 246 0 C260.0296351 -0.02335056 274.05926719 -0.04092334 288.08891773 -0.05181217 C294.6029865 -0.05703746 301.11704224 -0.06412873 307.63110352 -0.07543945 C313.91397416 -0.08628085 320.19683226 -0.09227951 326.47971153 -0.09487724 C328.88035975 -0.09672922 331.28100726 -0.10034551 333.68165016 -0.10573006 C337.03623582 -0.11295705 340.39076917 -0.11399023 343.74536133 -0.11352539 C344.74445526 -0.11712067 345.74354919 -0.12071594 346.7729187 -0.12442017 C347.68577133 -0.1230455 348.59862396 -0.12167084 349.53913879 -0.12025452 C350.33280255 -0.12117631 351.12646631 -0.1220981 351.94418049 -0.12304783 C354 0 354 0 357 1 C355.55430444 10.2524516 350.94956408 19.13204886 347.4375 27.75 C346.86876539 29.14792899 346.30008208 30.54587886 345.73144531 31.94384766 C340.54377721 44.69064373 335.32476824 57.42461941 330.10946655 70.16012573 C324.29328396 84.36560219 318.50768479 98.58321339 312.75 112.8125 C312.22460632 114.11063629 312.22460632 114.11063629 311.68859863 115.43499756 C308.447984 123.44371502 305.2142386 131.454876 302.015625 139.48046875 C298.06941348 149.35993005 294.00732891 159.19185221 289.95898438 169.02978516 C288.93040955 171.53003553 287.90244975 174.03053709 286.875 176.53125 C286.54290527 177.3395224 286.21081055 178.1477948 285.86865234 178.9805603 C283.8015934 184.02055218 281.76395206 189.07138627 279.75 194.1328125 C277.5786256 199.58325567 275.32232079 204.98765338 273 210.375 C270.08020436 217.21322983 267.48760127 224.10595621 265.08032227 231.13916016 C263.3942825 236.01892059 261.41924335 240.67395674 259.2109375 245.34375 C257.39196235 249.33376 255.87395334 253.42827248 254.3203125 257.52734375 C247.78520072 274.71584781 247.78520072 274.71584781 243.921875 282.0625 C242.80636209 284.40696782 241.97517291 286.79704209 241.125 289.25 C239.692871 293.35392698 237.9708006 297.09682109 235.9375 300.9375 C233.3446246 305.9542915 231.92794215 310.71683942 230.69921875 316.20703125 C229.86860375 319.52485093 228.63524262 322.42938142 227.17578125 325.51171875 C225.66691651 328.70489761 224.26892155 331.94307864 222.875 335.1875 C222.37742187 336.33605469 221.87984375 337.48460937 221.3671875 338.66796875 C220.53853501 340.68751324 219.75801747 342.72899778 219.0703125 344.80078125 C218.71710938 345.85652344 218.36390625 346.91226562 218 348 C217.80156494 348.82846436 217.60312988 349.65692871 217.39868164 350.51049805 C216.55603802 353.38752043 215.73876321 355.5504493 214 358 C210.2237347 359.80681075 206.45000842 360.12466735 202.3125 360.5 C201.18851807 360.63905762 200.06453613 360.77811523 198.90649414 360.92138672 C195.60744471 361.32194345 192.30615374 361.6641138 189 362 C187.37692721 362.19496555 185.75442448 362.39479833 184.1328125 362.6015625 C181.40694682 362.94565783 178.68063214 363.26950616 175.94921875 363.56640625 C171.71156124 364.03166835 167.48065899 364.53809021 163.25 365.0625 C161.97640625 365.21847656 160.7028125 365.37445312 159.390625 365.53515625 C156.55785109 365.92352041 153.79825249 366.42404726 151 367 C149.58123711 363.70923306 148.16538824 360.41721966 146.75 357.125 C146.35425781 356.2071875 145.95851563 355.289375 145.55078125 354.34375 C142.93938971 348.26477298 140.43068638 342.15328846 138 336 C137.49129406 334.72119153 136.98221333 333.44253206 136.47265625 332.1640625 C135.74857587 330.34684138 135.02458658 328.52958335 134.30224609 326.71166992 C132.26036249 321.59409461 130.10124956 316.53208626 127.8828125 311.48828125 C127 309 127 309 127 305 C126.34 305 125.68 305 125 305 C124.6596875 303.99324219 124.319375 302.98648437 123.96875 301.94921875 C120.6614757 292.3047427 116.95731227 282.90060929 112.9296875 273.53515625 C111.23419512 269.584732 109.62735395 265.60359112 108.04003906 261.60864258 C106.20182746 256.99801089 104.31747168 252.40622506 102.4375 247.8125 C101.85838867 246.39420898 101.85838867 246.39420898 101.26757812 244.94726562 C100.70006836 243.55991211 100.70006836 243.55991211 100.12109375 242.14453125 C99.7852124 241.32315674 99.44933105 240.50178223 99.10327148 239.65551758 C97.7615529 236.42607012 96.37756567 233.2143199 95 230 C94.67 279.83 94.34 329.66 94 381 C88.39 382.65 82.78 384.3 77 386 C72.32246892 387.51717334 67.65718771 389.0490555 63 390.625 C61.86433594 391.0065625 60.72867188 391.388125 59.55859375 391.78125 C57.36398359 392.51872039 55.16978804 393.25742617 52.97607422 393.99755859 C50.34275551 394.88454847 47.70728664 395.7645777 45.0703125 396.640625 C37.00586449 399.32694067 29.02265565 402.18104258 21.125 405.32421875 C19.58030029 405.93789307 19.58030029 405.93789307 18.00439453 406.56396484 C15.94036067 407.38745284 13.87876296 408.21707701 11.81982422 409.05322266 C10.8660791 409.43397949 9.91233398 409.81473633 8.9296875 410.20703125 C8.07616699 410.5522583 7.22264648 410.89748535 6.34326172 411.25317383 C4 412 4 412 0 412 C0 276.04 0 140.08 0 0 Z " fill="#E2060E" transform="translate(215,286)"/>
<path d="M0 0 C6.27 0 12.54 0 19 0 C18.5359375 3.650625 18.5359375 3.650625 18.0625 7.375 C17.91953491 8.52234619 17.91953491 8.52234619 17.77368164 9.69287109 C17.11111111 14.77777778 17.11111111 14.77777778 16 17 C16.66 17 17.32 17 18 17 C18.33 16.34 18.66 15.68 19 15 C18.67 17.64 18.34 20.28 18 23 C18.33 23 18.66 23 19 23 C18.98839844 23.64066406 18.97679687 24.28132813 18.96484375 24.94140625 C18.9236773 28.88750442 18.93478076 32.59419141 19.5625 36.5 C20.14198078 41.1358462 19.55222252 45.38262136 19 50 C18.80622651 52.04108081 18.6186243 54.08275785 18.4375 56.125 C18.31181641 57.52105469 18.31181641 57.52105469 18.18359375 58.9453125 C18.12300781 59.62335938 18.06242188 60.30140625 18 61 C18.33 61 18.66 61 19 61 C18.96447021 61.6391333 18.92894043 62.2782666 18.89233398 62.93676758 C18.73256823 65.89496779 18.58498664 68.85366314 18.4375 71.8125 C18.38142578 72.81732422 18.32535156 73.82214844 18.26757812 74.85742188 C17.97976386 80.824771 18.08501566 86.56334557 18.74145508 92.50341797 C19.61744605 100.96223161 18.75985658 108.00650015 16.265625 116.15234375 C15.55864979 126.39308764 22.01650409 136.74886571 26.3125 145.75 C27.94915175 149.20580085 29.5803174 152.66286967 31.18115902 156.13542175 C32.34092912 158.63645646 33.55638723 161.06576641 34.83404636 163.51313782 C40.32025586 174.35566084 40.9690707 183.80949451 40.79467773 195.80859375 C40.79269823 197.74196297 40.79382127 199.67533743 40.79777527 201.60870361 C40.79976627 206.80641059 40.75889812 212.00296395 40.70975757 217.20040512 C40.66570414 222.65087632 40.66186341 228.10138018 40.65357971 233.55200195 C40.63190875 243.85068473 40.57458264 254.14884122 40.50413328 264.44729328 C40.42562273 276.18134466 40.38733637 287.91542249 40.35226524 299.64967155 C40.27929187 323.76673836 40.15633581 347.88333956 40 372 C39.29255174 371.99777939 38.58510347 371.99555878 37.85621738 371.99327087 C31.05888818 371.97290229 24.26156376 371.95784502 17.46421152 371.94818783 C13.97293827 371.94305552 10.48169102 371.93614327 6.99043274 371.92456055 C-12.68322343 371.86107254 -32.29398817 372.22928855 -51.94348145 373.28710938 C-53.67193212 373.37936201 -55.40040664 373.47116887 -57.12890625 373.5625 C-57.94783891 373.60597061 -58.76677156 373.64944122 -59.61052036 373.69422913 C-65.6163669 373.98944733 -71.60452116 374.05264246 -77.61694336 374.02734375 C-78.52631401 374.02536987 -79.43568466 374.023396 -80.372612 374.0213623 C-82.58175535 374.01627891 -84.79087033 374.00913327 -87 374 C-87.24791839 354.78034271 -87.46637639 335.56056285 -87.65021229 316.34018326 C-87.73625892 307.41488411 -87.83177484 298.48987774 -87.94995117 289.56494141 C-88.05298513 281.78174567 -88.13787715 273.99859427 -88.20140952 266.21497226 C-88.23564135 262.09733523 -88.27866671 257.9802322 -88.34345436 253.86295319 C-88.40428327 249.97897902 -88.44065217 246.0955064 -88.45913696 242.21110725 C-88.47003468 240.79377525 -88.48948697 239.37647589 -88.51865196 237.95940208 C-88.70771117 228.45326345 -87.22066746 221.50452087 -83 213 C-82.44305327 211.66251087 -81.89928086 210.31937816 -81.375 208.96875 C-78.78678652 202.43939327 -76.14813545 195.93843411 -73.44091797 189.45751953 C-70.9342408 183.44268353 -68.45281738 177.41743984 -65.97094727 171.39233398 C-65.06794298 169.2007103 -64.16386096 167.00953316 -63.25976562 164.81835938 C-59.98337194 156.86996344 -56.74993184 148.90665828 -53.56616211 140.9206543 C-50.48893157 133.20663898 -47.36578821 125.5109986 -44.25 117.8125 C-43.88650452 116.91415436 -43.52300903 116.01580872 -43.14849854 115.09024048 C-37.05063957 100.02369053 -30.908661 84.97549069 -24.74737549 69.93478394 C-19.34977224 56.75766113 -13.9730202 43.57232855 -8.625 30.375 C-8.1580069 29.22286514 -8.1580069 29.22286514 -7.68157959 28.04745483 C-5.7845339 23.36625256 -3.89066604 18.6837827 -2 14 C-1.37496582 12.4516748 -1.37496582 12.4516748 -0.73730469 10.87207031 C-0.37797852 9.97842773 -0.01865234 9.08478516 0.3515625 8.1640625 C0.80136475 7.04572021 0.80136475 7.04572021 1.26025391 5.90478516 C1.88826057 4.28771982 2.4514298 2.6457106 3 1 C2.01 0.67 1.02 0.34 0 0 Z " fill="#B00409" transform="translate(569,286)"/>
<path d="M0 0 C31.02 0 62.04 0 94 0 C94 135.96 94 271.92 94 412 C93.67 412 93.34 412 93 412 C92.73316406 410.82953125 92.46632813 409.6590625 92.19140625 408.453125 C91.16585558 404.36527823 89.68481579 400.57923458 87.9375 396.75 C87.63585937 396.07525635 87.33421875 395.4005127 87.0234375 394.70532227 C86.36865015 393.24315164 85.71083124 391.78233556 85.05029297 390.32275391 C83.95451764 387.89941442 82.86902828 385.47165371 81.78515625 383.04296875 C77.01589776 372.37486359 72.12951552 361.76662225 67.14990234 351.1953125 C62.58830237 341.50548646 58.20016775 331.74678174 53.86523438 321.95361328 C51.16414238 315.85481583 48.39618823 309.80042362 45.47265625 303.8046875 C44.78792236 302.39183472 44.78792236 302.39183472 44.08935547 300.95043945 C43.16677024 299.04983677 42.23757425 297.15242653 41.30126953 295.25854492 C40.87571777 294.38045166 40.45016602 293.5023584 40.01171875 292.59765625 C39.43103638 291.41441772 39.43103638 291.41441772 38.83862305 290.20727539 C38 288 38 288 38 284 C37.34 284 36.68 284 36 284 C35.8040625 283.48695313 35.608125 282.97390625 35.40625 282.4453125 C30.98189106 271.11742797 26.33293688 259.64133375 20.15844727 249.14428711 C18.98302795 246.96858472 18.08539199 244.80909572 17.203125 242.5 C14.86560062 236.55706756 12.19543964 230.78748347 9.5 225 C8.54964938 222.95946515 7.60170364 220.91780841 6.65625 218.875 C6.24181641 217.98554688 5.82738281 217.09609375 5.40039062 216.1796875 C4.93826172 215.13039063 4.47613281 214.08109375 4 213 C3.67138851 212.40501772 3.34277702 211.81003544 3.00420761 211.19702339 C-1.36099873 202.32939104 -0.53034745 192.8637882 -0.45410156 183.22998047 C-0.45297201 181.22853112 -0.45360905 179.22708011 -0.45587158 177.22563171 C-0.45701544 171.8150927 -0.43355914 166.4049111 -0.40557575 160.99445486 C-0.38050742 155.33169987 -0.37821581 149.66893595 -0.37347412 144.00613403 C-0.36106031 133.29305826 -0.32826022 122.58014648 -0.28807616 111.8671428 C-0.23493199 97.38344385 -0.2134001 82.8996998 -0.19006729 68.41592789 C-0.15249774 45.61049584 -0.07279613 22.80540981 0 0 Z " fill="#AB0207" transform="translate(721,286)"/>
<path d="M0 0 C0.66 0 1.32 0 2 0 C2.17532257 0.54849106 2.35064514 1.09698212 2.53128052 1.66209412 C4.31016027 7.12522487 6.32684629 12.4285738 8.5546875 17.72265625 C8.89236649 18.53278168 9.23004547 19.3429071 9.57795715 20.17758179 C10.29985928 21.90889006 11.02312364 23.63963087 11.74765015 25.36984253 C13.67590825 29.97545682 15.59343169 34.58553829 17.51171875 39.1953125 C17.89671036 40.1198674 18.28170197 41.0444223 18.67835999 41.99699402 C22.06000429 50.12565001 25.38588034 58.27607353 28.6875 66.4375 C37.35051458 87.83602796 46.16947982 109.17014846 55 130.5 C57.00053712 135.3331112 59.000533 140.16644601 61 145 C61.29106628 145.70350586 61.58213257 146.40701172 61.88201904 147.13183594 C63.76182091 151.6758462 65.63966471 156.22065905 67.51538086 160.76635742 C68.11866482 162.22768783 68.72248448 163.68879723 69.3269043 165.1496582 C72.20454678 172.10578523 75.046908 179.06603346 77.7265625 186.1015625 C79.31739465 190.27560763 80.99281167 194.35034067 82.9375 198.375 C86.26847007 205.46618885 89.23893664 212.66810066 92 220 C92.25861722 220.59529479 92.51723444 221.19058958 92.78368855 221.80392361 C95.65771657 229.06847866 95.36193827 236.2744865 95.2487793 243.97485352 C95.23805428 245.4736901 95.22868174 246.97253687 95.22055054 248.47138977 C95.1948121 252.51638763 95.15028711 256.56098121 95.10225272 260.60576749 C95.05518787 264.84174105 95.02558857 269.0778368 94.99409485 273.31394958 C94.9319043 281.32488415 94.8541264 289.3355876 94.77067453 297.34632581 C94.67638469 306.47080946 94.59958366 315.59541448 94.52421319 324.72007096 C94.36886263 343.48024759 94.19167433 362.24016109 94 381 C92.85692383 381.3336557 91.71384766 381.6673114 90.53613281 382.01107788 C89.00844746 382.45833945 87.48077909 382.90565903 85.953125 383.35302734 C85.20305176 383.57180038 84.45297852 383.79057343 83.68017578 384.01597595 C76.72881202 386.053891 69.86194926 388.30298683 63 390.625 C61.86433594 391.0065625 60.72867188 391.388125 59.55859375 391.78125 C57.36398359 392.51872039 55.16978804 393.25742617 52.97607422 393.99755859 C50.34275551 394.88454847 47.70728664 395.7645777 45.0703125 396.640625 C37.00586449 399.32694067 29.02265565 402.18104258 21.125 405.32421875 C19.58030029 405.93789307 19.58030029 405.93789307 18.00439453 406.56396484 C15.94036067 407.38745284 13.87876296 408.21707701 11.81982422 409.05322266 C10.8660791 409.43397949 9.91233398 409.81473633 8.9296875 410.20703125 C8.07616699 410.5522583 7.22264648 410.89748535 6.34326172 411.25317383 C4 412 4 412 0 412 C0 276.04 0 140.08 0 0 Z " fill="#AA0409" transform="translate(215,286)"/>
<path d="M0 0 C4.95 0 9.9 0 15 0 C14.690625 2.43375 14.38125 4.8675 14.0625 7.375 C13.91953491 8.52234619 13.91953491 8.52234619 13.77368164 9.69287109 C13.11111111 14.77777778 13.11111111 14.77777778 12 17 C12.66 17 13.32 17 14 17 C14.33 16.34 14.66 15.68 15 15 C14.67 17.64 14.34 20.28 14 23 C14.33 23 14.66 23 15 23 C14.98839844 23.64066406 14.97679687 24.28132813 14.96484375 24.94140625 C14.9236773 28.88750442 14.93478076 32.59419141 15.5625 36.5 C16.14198078 41.1358462 15.55222252 45.38262136 15 50 C14.80622651 52.04108081 14.6186243 54.08275785 14.4375 56.125 C14.35371094 57.05570312 14.26992188 57.98640625 14.18359375 58.9453125 C14.12300781 59.62335938 14.06242188 60.30140625 14 61 C14.33 61 14.66 61 15 61 C14.96447021 61.6391333 14.92894043 62.2782666 14.89233398 62.93676758 C14.73256823 65.89496779 14.58498664 68.85366314 14.4375 71.8125 C14.38142578 72.81732422 14.32535156 73.82214844 14.26757812 74.85742188 C13.97976386 80.824771 14.08501566 86.56334557 14.74145508 92.50341797 C15.61744605 100.96223161 14.75985658 108.00650015 12.265625 116.15234375 C11.55864979 126.39308764 18.01650409 136.74886571 22.3125 145.75 C23.94915175 149.20580085 25.5803174 152.66286967 27.18115902 156.13542175 C28.34092912 158.63645646 29.55638723 161.06576641 30.83404636 163.51313782 C36.32025586 174.35566084 36.9690707 183.80949451 36.79467773 195.80859375 C36.79269823 197.74196297 36.79382127 199.67533743 36.79777527 201.60870361 C36.79976627 206.80641059 36.75889812 212.00296395 36.70975757 217.20040512 C36.66570414 222.65087632 36.66186341 228.10138018 36.65357971 233.55200195 C36.63190875 243.85068473 36.57458264 254.14884122 36.50413328 264.44729328 C36.42562273 276.18134466 36.38733637 287.91542249 36.35226524 299.64967155 C36.27929187 323.76673836 36.15633581 347.88333956 36 372 C33.37492193 372.02792636 30.75016202 372.04726274 28.125 372.0625 C27.41730469 372.07087891 26.70960938 372.07925781 25.98046875 372.08789062 C17.26653493 372.12512966 8.7583227 371.48657348 0 371 C0 248.57 0 126.14 0 0 Z " fill="#760509" transform="translate(573,286)"/>
<path d="M0 0 C0.99 0.33 1.98 0.66 3 1 C2.99555878 2.27706818 2.99111755 3.55413635 2.98654175 4.86990356 C2.94599605 16.90583075 2.91601574 28.94174408 2.89637566 40.97772408 C2.88593908 47.16551688 2.87178202 53.35325455 2.84912109 59.54101562 C2.82738845 65.51267921 2.81543043 71.48428976 2.81024551 77.45598984 C2.80655054 79.73414825 2.79933522 82.01230377 2.78853989 84.29043961 C2.77401956 87.48161337 2.77202231 90.67256804 2.77294922 93.86376953 C2.76575867 94.80532394 2.75856812 95.74687836 2.75115967 96.71696472 C2.76349291 100.64171451 2.8756111 103.63055208 4.13919067 107.3835144 C5 110 5 110 4.1401825 111.97390747 C3.76392227 112.64251801 3.38766205 113.31112854 3 114 C2.70377034 117.03000106 2.70377034 117.03000106 2.75708008 120.41748047 C2.75400345 121.71918182 2.75092682 123.02088318 2.74775696 124.36203003 C2.75465679 125.78041764 2.76192392 127.19880351 2.76953125 128.6171875 C2.77072421 130.07683268 2.77117597 131.53647863 2.7709198 132.99612427 C2.77248282 136.05426853 2.78075647 139.11229543 2.79418945 142.17041016 C2.8111488 146.0797944 2.81500446 149.98904939 2.81424427 153.89846611 C2.81451701 156.91314922 2.82001532 159.9278044 2.82724571 162.94247818 C2.8304163 164.3832999 2.832396 165.82412478 2.83313942 167.2649498 C2.83532183 169.28455501 2.84488573 171.3041481 2.85473633 173.32373047 C2.85854813 174.47082489 2.86235992 175.61791931 2.86628723 176.79977417 C2.99783634 179.94821593 3.44625394 182.90175041 4 186 C4.26164462 192.6334607 4.20636389 199.15720984 3.22241211 205.72900391 C2.16338947 216.5424272 3.03225665 227.7929343 3.37231445 238.64697266 C3.43791054 240.76324507 3.49745767 242.87963334 3.55664062 244.99609375 C3.73817048 251.12063506 3.97917112 257.21325313 4.55859375 263.31640625 C5.07263532 268.98577021 4.95149565 274.5105568 4.625 280.1875 C4.55925781 281.59612305 4.55925781 281.59612305 4.4921875 283.03320312 C4.13605925 289.86394075 4.13605925 289.86394075 3 291 C2.74657764 295.30647636 2.81477362 299.62445054 2.8125 303.9375 C2.80025391 305.15630859 2.78800781 306.37511719 2.77539062 307.63085938 C2.77345703 308.79294922 2.77152344 309.95503906 2.76953125 311.15234375 C2.76542236 312.22476318 2.76131348 313.29718262 2.75708008 314.40209961 C2.73638677 317.16185604 2.73638677 317.16185604 5 319 C4.69120734 321.00393568 4.34999375 323.00284816 4 325 C3.88914742 328.6880361 3.95130018 332.37348844 4 336.0625 C4.02563 338.01166158 4.04662004 339.96089085 4.0625 341.91015625 C4.07410156 342.76746338 4.08570313 343.62477051 4.09765625 344.50805664 C3.99584379 347.10605617 3.53319178 349.45894878 3 352 C2.86378815 353.47274006 2.75798279 354.94862749 2.68359375 356.42578125 C2.64169922 357.22177734 2.59980469 358.01777344 2.55664062 358.83789062 C2.51732422 359.65451172 2.47800781 360.47113281 2.4375 361.3125 C2.39431641 362.14845703 2.35113281 362.98441406 2.30664062 363.84570312 C2.20114693 365.89696935 2.10012685 367.9484648 2 370 C4.31 370 6.62 370 9 370 C9 370.33 9 370.66 9 371 C6.03 371 3.06 371 0 371 C0 248.57 0 126.14 0 0 Z " fill="#4F0608" transform="translate(573,286)"/>
<path d="M0 0 C1.98 0 3.96 0 6 0 C5.69177379 2.2922454 5.37829126 4.58378455 5.0625 6.875 C4.88847656 8.15117187 4.71445312 9.42734375 4.53515625 10.7421875 C4 14 4 14 3 16 C3.66 16 4.32 16 5 16 C5.33 15.34 5.66 14.68 6 14 C5.67 16.64 5.34 19.28 5 22 C5.33 22 5.66 22 6 22 C5.98839844 22.64066406 5.97679687 23.28132813 5.96484375 23.94140625 C5.9236773 27.88750442 5.93478076 31.59419141 6.5625 35.5 C7.14198078 40.1358462 6.55222252 44.38262136 6 49 C5.80622651 51.04108081 5.6186243 53.08275785 5.4375 55.125 C5.35371094 56.05570312 5.26992188 56.98640625 5.18359375 57.9453125 C5.12300781 58.62335938 5.06242188 59.30140625 5 60 C5.33 60 5.66 60 6 60 C5.96447021 60.6391333 5.92894043 61.2782666 5.89233398 61.93676758 C5.73256823 64.89496779 5.58498664 67.85366314 5.4375 70.8125 C5.38142578 71.81732422 5.32535156 72.82214844 5.26757812 73.85742188 C4.97976386 79.824771 5.08501566 85.56334557 5.74145508 91.50341797 C6.62834774 100.06750141 5.67721023 107.49329661 3.55859375 115.8359375 C3.00423286 118.97602366 3.14067631 120.9610672 4 124 C1.09718486 121.01271125 0.65443394 118.65037708 0.6378479 114.53968811 C0.65020477 113.82179611 0.66256165 113.10390411 0.67529297 112.36425781 C0.67646118 111.59933517 0.67762939 110.83441254 0.67883301 110.04631042 C0.68602327 107.51497371 0.71426792 104.98431073 0.7421875 102.453125 C0.75033329 100.68113812 0.75699304 98.90914384 0.76223755 97.137146 C0.77937041 92.46110156 0.81358755 87.78534594 0.85229492 83.10943604 C0.91137185 75.66939605 0.94578697 68.22922059 0.97806168 60.78902435 C0.9918038 58.21256404 1.01344786 55.63626855 1.03634644 53.05987549 C1.09924219 44.15714725 0.88784729 35.35097885 0.2285614 26.4710083 C-0.12211341 21.14554571 -0.10891735 15.83442462 -0.0625 10.5 C-0.05798828 9.47519531 -0.05347656 8.45039063 -0.04882812 7.39453125 C-0.03730984 4.92961844 -0.02105876 2.4648464 0 0 Z " fill="#A4090D" transform="translate(582,287)"/>
<path d="M0 0 C2.64 0 5.28 0 8 0 C8 0.33 8 0.66 8 1 C6.02 1 4.04 1 2 1 C2.06058594 1.92031006 2.12117187 2.84062012 2.18359375 3.78881836 C3.81388771 29.37097769 4.22491164 54.92915475 4.24676514 80.55507278 C4.25000832 83.06894721 4.25713775 85.58278574 4.26513672 88.09664917 C4.27683243 92.09527261 4.27730027 96.09374297 4.26863861 100.09237289 C4.26664025 101.58787835 4.26783131 103.08339169 4.27231598 104.57889175 C4.2773907 106.63746704 4.26984677 108.69560743 4.25878906 110.75415039 C4.25719788 111.91684952 4.25560669 113.07954865 4.25396729 114.27748108 C4 117 4 117 2 119 C0.44694415 115.5438615 -0.2488511 112.85397568 -0.24050903 109.07084656 C-0.24325836 108.10475967 -0.24600769 107.13867279 -0.24884033 106.14331055 C-0.24164978 105.09530273 -0.23445923 104.04729492 -0.22705078 102.9675293 C-0.22734283 101.85489212 -0.22763489 100.74225494 -0.22793579 99.59590149 C-0.22654357 95.92192764 -0.21098715 92.24815713 -0.1953125 88.57421875 C-0.19158199 86.02545787 -0.1887352 83.47669556 -0.18673706 80.92793274 C-0.17988361 74.90734413 -0.1641241 68.88684267 -0.14403808 62.86628896 C-0.12166238 56.01020733 -0.11068145 49.15412216 -0.10064721 42.29801309 C-0.07975736 28.19863509 -0.04459183 14.09932154 0 0 Z " fill="#8A090C" transform="translate(580,286)"/>
<path d="M0 0 C2.0625 0.4375 2.0625 0.4375 4 1 C3.34 1 2.68 1 2 1 C1.97683662 13.82163962 1.95906448 26.64327426 1.94818783 39.46493053 C1.94296777 45.41844102 1.93588598 51.3719372 1.92456055 57.32543945 C1.91370059 63.07015944 1.90771655 68.81486565 1.90512276 74.55959511 C1.90327413 76.75205006 1.89966427 78.94450426 1.89426994 81.13695335 C1.88701833 84.20614632 1.88601081 87.27528228 1.88647461 90.34448242 C1.88287933 91.25222916 1.87928406 92.15997589 1.87557983 93.0952301 C1.88231477 97.21005399 2.01480283 100.97946888 3 105 C3.11678799 107.67678073 3.0454506 110.31841457 3 113 C2.31379969 111.67661368 1.65213539 110.34050052 1 109 C0.6518071 108.33369568 0.3036142 107.66739136 -0.05513 106.980896 C-1.42886408 102.64701046 -1.26983844 98.51308658 -1.24291992 93.99316406 C-1.24481827 92.98942245 -1.24671661 91.98568085 -1.24867249 90.95152283 C-1.2523723 87.63947702 -1.24168969 84.32765125 -1.23046875 81.015625 C-1.2292767 78.71588161 -1.22882384 76.41613773 -1.2290802 74.11639404 C-1.22751686 69.30136052 -1.2192365 64.48640151 -1.20581055 59.67138672 C-1.18878276 53.48479339 -1.18499737 47.29828165 -1.18575573 41.11166763 C-1.18548453 36.36608088 -1.18001202 31.62051212 -1.17275429 26.87493134 C-1.16956242 24.59265021 -1.16759901 22.31036704 -1.16686058 20.0280838 C-1.16470465 16.84843934 -1.15597781 13.66888341 -1.14526367 10.48925781 C-1.14571686 9.53758224 -1.14617004 8.58590668 -1.14663696 7.60539246 C-1.11447684 1.11447684 -1.11447684 1.11447684 0 0 Z " fill="#58090B" transform="translate(576,286)"/>
<path d="M0 0 C36.96 0 73.92 0 112 0 C112 0.33 112 0.66 112 1 C102.62625742 1.13295103 93.25248444 1.26345591 83.87866879 1.39115143 C79.52220472 1.45056788 75.16575369 1.51071139 70.80932617 1.57275391 C66.59466404 1.6327084 62.37998091 1.69085321 58.16527176 1.74740601 C56.48982833 1.7699708 54.81439031 1.79294044 53.13895798 1.8163147 C44.33397247 1.93761946 35.53284873 2.01951561 26.72705078 1.9609375 C25.63734088 1.95492146 25.63734088 1.95492146 24.52561665 1.94878387 C21.13054758 1.92920164 17.73661822 1.89877673 14.34178162 1.84973145 C13.16237503 1.84066772 11.98296844 1.831604 10.76782227 1.82226562 C9.74423111 1.80860962 8.72063995 1.79495361 7.66603088 1.78088379 C4.94098349 2.00485046 3.32176797 2.59959665 1 4 C0.67 2.68 0.34 1.36 0 0 Z " fill="#D90F1A" transform="translate(217,286)"/>
<path d="M0 0 C0.33 0 0.66 0 1 0 C0.99777939 1.22917648 0.99555878 2.45835297 0.99327087 3.72477722 C0.97300505 15.30482496 0.95801123 26.88486909 0.94818783 38.46493053 C0.94296777 44.41844102 0.93588598 50.3719372 0.92456055 56.32543945 C0.91370059 62.07015944 0.90771655 67.81486565 0.90512276 73.55959511 C0.90327413 75.75205006 0.89966427 77.94450426 0.89426994 80.13695335 C0.88701833 83.20614632 0.88601081 86.27528228 0.88647461 89.34448242 C0.88287933 90.25222916 0.87928406 91.15997589 0.87557983 92.0952301 C0.88231477 96.21005399 1.01480283 99.97946888 2 104 C2.11678799 106.67678073 2.0454506 109.31841457 2 112 C-0.00202583 108.12941673 -1.12936395 105.03084745 -1.08229065 100.6530304 C-1.07525116 99.76542023 -1.06821167 98.87781006 -1.06095886 97.96330261 C-1.04801285 96.99226089 -1.03506683 96.02121918 -1.02172852 95.02075195 C-1.01212097 93.99618896 -1.00251343 92.97162598 -0.99261475 91.91601562 C-0.95958621 88.52336844 -0.91926839 85.13084847 -0.87890625 81.73828125 C-0.85460891 79.38844758 -0.83076516 77.03860918 -0.80735779 74.68876648 C-0.74447849 68.49912128 -0.67542265 62.30955966 -0.60510254 56.11999512 C-0.53445386 49.80594698 -0.46961615 43.4918395 -0.40429688 37.17773438 C-0.27523494 24.78509104 -0.13965118 12.39252821 0 0 Z " fill="#66070A" transform="translate(577,287)"/>
<path d="M0 0 C3.71428571 4.95238095 3.71428571 4.95238095 4 8 C3.68044342 8.57071228 3.36088684 9.14142456 3.03164673 9.72943115 C1.68353936 12.69650361 1.71961259 15.07280072 1.68115234 18.32910156 C1.66128265 19.61012756 1.64141296 20.89115356 1.62094116 22.21099854 C1.60906564 23.6042056 1.59740273 24.9974145 1.5859375 26.390625 C1.56722168 27.8198152 1.54764795 29.24899441 1.5272522 30.67816162 C1.47596852 34.43291736 1.43632284 38.18770892 1.39910889 41.94262695 C1.35904551 45.7769453 1.30796385 49.61111517 1.2578125 53.4453125 C1.16109785 60.96343972 1.07667899 68.4816389 1 76 C0.67 76 0.34 76 0 76 C0 50.92 0 25.84 0 0 Z " fill="#260809" transform="translate(574,388)"/>
<path d="M0 0 C1.32 0 2.64 0 4 0 C3.69177379 2.2922454 3.37829126 4.58378455 3.0625 6.875 C2.88847656 8.15117187 2.71445312 9.42734375 2.53515625 10.7421875 C2 14 2 14 1 16 C1.66 16 2.32 16 3 16 C3.33 15.34 3.66 14.68 4 14 C3.5020163 17.73487777 3.12508244 19.81237635 1 23 C-0.0176403 17.98391475 -0.11856434 13.21391694 -0.0625 8.125 C-0.05798828 7.34125 -0.05347656 6.5575 -0.04882812 5.75 C-0.03714093 3.83329986 -0.01920908 1.91663952 0 0 Z " fill="#B4090E" transform="translate(584,287)"/>
<path d="M0 0 C12.05023529 -0.11317227 23.98785879 -0.03330247 36 1 C36 1.33 36 1.66 36 2 C34.62279785 1.98428955 34.62279785 1.98428955 33.21777344 1.96826172 C29.80352254 1.93412785 26.38945362 1.9090759 22.97509766 1.89013672 C21.49883153 1.88009409 20.02258521 1.86645735 18.54638672 1.84912109 C16.42149966 1.82479579 14.29687615 1.8134996 12.171875 1.8046875 C10.8940918 1.79421387 9.61630859 1.78374023 8.29980469 1.77294922 C5.22530701 1.98449722 3.56261648 2.36873092 1 4 C0.67 2.68 0.34 1.36 0 0 Z " fill="#EF0F1A" transform="translate(217,286)"/>
<path d="M0 0 C2.8290723 2.8290723 3.37611108 3.38144425 4 7 C3.01 6.67 2.02 6.34 1 6 C1 12.27 1 18.54 1 25 C0.67 25 0.34 25 0 25 C0 16.75 0 8.5 0 0 Z " fill="#1B0000" transform="translate(608,463)"/>
<path d="M0 0 C2.16695725 2.16695725 2.73495121 2.99611368 3 6 C2.01 7.32 1.02 8.64 0 10 C0 6.7 0 3.4 0 0 Z " fill="#330A09" transform="translate(575,390)"/>
</svg>
